<svg xmlns="http://www.w3.org/2000/svg" xmlns:xlink="http://www.w3.org/1999/xlink" xmlns:inkscape="http://www.inkscape.org/namespaces/inkscape" version="1.1" width="346" height="64" viewBox="0 0 346 64">
<defs>
<path id="font_1_98" d="M.3929901 .15733338C.3929901 .24420166 .31498719 .2621765 .27398683 .27116395 .24598694 .2771454 .20999146 .285141 .20999146 .32810975 .20999146 .35211183 .23098755 .42037965 .31098939 .42037965 .33799745 .42037965 .375 .4103241 .38598634 .371109 .35398866 .3671112 .34599305 .34010316 .34599305 .33010865 .34599305 .31910707 .35198976 .30210877 .37599183 .30210877 .3929901 .30210877 .4189911 .31410218 .4189911 .3571167 .4189911 .4032898 .37799073 .4423828 .31199647 .4423828 .19499207 .4423828 .1539917 .3461151 .1539917 .29412843 .1539917 .21723938 .21899414 .20326233 .24699402 .19728089 .29100038 .18728638 .33599855 .17730713 .33599855 .12335205 .33599855 .09135437 .30899049 .011245728 .20599365 .011245728 .18399048 .011245728 .12599182 .01626587 .10998535 .067352298 .16099549 .07235718 .16099549 .11634827 .16099549 .11634827 .16099549 .13534546 .147995 .14834595 .1269989 .14834595 .10398865 .14834595 .07598877 .13134766 .07598877 .08634949 .07598877 .025268555 .13398743-.0107421879 .20498657-.0107421879 .35499574-.0107421879 .3929901 .11135864 .3929901 .15733338Z"/>
<path id="font_1_66" d="M.33099366 .14329529C.33099366 .1532898 .32299806 .1532898 .31599427 .1532898 .30299378 .1532898 .30299378 .1512909 .29899598 .1362915 .29100038 .107284549 .2639923 .011245728 .20599365 .011245728 .19799805 .011245728 .18399048 .012252808 .18399048 .039260866 .18399048 .06526184 .19699097 .09828186 .20999146 .13528443L.27398683 .30633546C.28399659 .3353424 .28599549 .34335328 .28599549 .36235047 .28599549 .41737367 .24798584 .4423828 .21099854 .4423828 .116989139 .4423828 .08299255 .29333497 .08299255 .28833009 .08299255 .27833558 .09298706 .27833558 .09799194 .27833558 .11099243 .27833558 .11199951 .28033448 .115997318 .29434205 .125 .3273468 .15098572 .42037965 .20899964 .42037965 .21998596 .42037965 .23098755 .41537477 .23098755 .3923645 .23098755 .36836244 .21998596 .33935548 .21299744 .32034303L.18299866 .23731995 .1459961 .1382904C.13198853 .10028076 .12799073 .089279178 .12799073 .0692749 .12799073 .030258179 .1519928-.0107421879 .20399475-.0107421879 .2979889-.0107421879 .33099366 .13928223 .33099366 .14329529M.35798646 .61128237C.35798646 .6322937 .34298707 .6542969 .31298829 .6542969 .2809906 .6542969 .24899292 .623291 .24899292 .59129336 .24899292 .56929019 .2649994 .54829409 .2939911 .54829409 .32598878 .54829409 .35798646 .57928469 .35798646 .61128237Z"/>
<path id="font_1_59" d="M.37399293-.06303406 .48298646 .3753357C.4869995 .39035035 .4869995 .39234925 .4869995 .39634706 .4869995 .41737367 .46998597 .42237855 .45999146 .42237855 .44799806 .42237855 .4249878 .41436769 .42099 .38534547 .40699769 .41436769 .37998963 .4423828 .33699037 .4423828 .22499085 .4423828 .10998535 .2942505 .10998535 .15312195 .10998535 .06803894 .15699768 0 .23199463 0 .2829895 0 .32598878 .041015626 .33799745 .053024293L.31698609-.031021119C.30499269-.08103943 .29899598-.10205078 .2709961-.13606262 .23098755-.18309021 .19099427-.18309021 .17599488-.18309021 .16299439-.18309021 .13198853-.18309021 .10499573-.17208863 .125-.16407776 .13699341-.1430664 .13699341-.12606812 .13699341-.11305237 .12799073-.094055179 .101989749-.094055179 .083999637-.094055179 .052993776-.108047489 .052993776-.14706421 .052993776-.18708802 .08999634-.20507813 .17399597-.20507813 .2789917-.20507813 .35499574-.1390686 .37399293-.06303406M.35798646 .13209534C.34999085 .10006714 .2889862 .021987915 .23399353 .021987915 .17999268 .021987915 .17799378 .09806824 .17799378 .109069827 .17799378 .15711975 .20799256 .27423097 .22898865 .3212738 .2539978 .3753357 .2979889 .42037965 .33699037 .42037965 .39698792 .42037965 .4059906 .33628846 .4059906 .3282776L.40299989 .31427003 .35798646 .13209534Z"/>
<path id="font_1_77" d="M.58599856 .14329529C.58599856 .1532898 .5779877 .1532898 .57099917 .1532898 .55799868 .1532898 .55799868 .1512909 .55400088 .1362915 .54599 .10928345 .5189972 .011245728 .46099855 .011245728 .43998719 .011245728 .43899537 .026260376 .43899537 .040252687 .43899537 .06526184 .44898988 .091278079 .45700074 .11528015 .47698976 .16830445 .5179901 .28033448 .5179901 .3383484 .5179901 .42037965 .46299745 .4423828 .4139862 .4423828 .33198548 .4423828 .28399659 .38235475 .2709961 .36335755 .2639923 .41236878 .22999573 .4423828 .18699646 .4423828 .15098572 .4423828 .1309967 .41937257 .114990238 .38935853 .09599304 .34934999 .08299255 .28833009 .08299255 .28833009 .08299255 .27833558 .09298706 .27833558 .09799194 .27833558 .11099243 .27833558 .11199951 .2793274 .116989139 .30133058 .1349945 .37135316 .1539917 .42037965 .18499756 .42037965 .21099854 .42037965 .21099854 .39135743 .21099854 .38035584 .21099854 .36434938 .20799256 .34535218 .20399475 .3293457L.1289978 .029251099C.1269989 .023254395 .12599182 .018249512 .12599182 .015258789 .12599182 .004257202 .13398743-.0107421879 .1539917-.0107421879 .1659851-.0107421879 .18299866-.003753662 .18998719 .015258789L.22999573 .17529297C.23498535 .1973114 .24099732 .2183075 .24598694 .24032593 .25898744 .29133607 .25898744 .29232789 .27598573 .3213501 .2899933 .34535218 .33499146 .42037965 .41099549 .42037965 .45498658 .42037965 .45700074 .3753662 .45700074 .35435487 .45700074 .29232789 .41299439 .17329407 .39898683 .13328552 .38598634 .09927368 .3829956 .090270999 .3829956 .0692749 .3829956 .025253296 .41099549-.0107421879 .45899964-.0107421879 .5519867-.0107421879 .58599856 .1382904 .58599856 .14329529Z"/>
<path id="font_1_81" d="M.5089874 .27833558C.5089874 .37335206 .44999696 .4423828 .36299134 .4423828 .23899842 .4423828 .10998535 .30033876 .10998535 .15429688 .10998535 .05126953 .17298889-.0107421879 .2559967-.0107421879 .37998963-.0107421879 .5089874 .13128662 .5089874 .27833558M.43899537 .31733705C.43899537 .2743225 .4169922 .17129517 .3849945 .11128235 .35598756 .056259157 .30499269 .011245728 .2559967 .011245728 .21699524 .011245728 .17999268 .042266847 .17999268 .11428833 .17999268 .16429138 .20599365 .2753296 .23799134 .3293457 .2749939 .3903656 .32299806 .42037965 .3619995 .42037965 .41099549 .42037965 .43899537 .37635804 .43899537 .31733705Z"/>
<path id="font_1_55" d="M.45199586 .63897708C.45199586 .6820679 .41099549 .7050781 .36999513 .7050781 .27198792 .7050781 .24699402 .5749512 .23999024 .54089358L.21899414 .43066407H.15299988C.13699341 .43066407 .12599182 .43066407 .12599182 .4106598 .12599182 .3996582 .13598633 .3996582 .15098572 .3996582H.21299744L.13999939 .026931763C.12799073-.03503418 .117996219-.07600403 .11199951-.09698486 .10398865-.1309967 .09098816-.18309021 .054992677-.18309021 .04499817-.18309021 .025985718-.18006897 .01499939-.16499329 .04499817-.1599884 .05899048-.13598633 .05899048-.115997318 .05899048-.09399414 .040985109-.083984378 .024993897-.083984378 0-.083984378-.025009156-.10398865-.025009156-.13899231-.025009156-.18408203 .017990113-.20507813 .054992677-.20507813 .15899658-.20507813 .19999695 .0049438478 .20698548 .040924074L.2769928 .3996582H.35899354C.37599183 .3996582 .38598634 .3996582 .38598634 .41766358 .38598634 .43066407 .37799073 .43066407 .36099244 .43066407H.2829895L.31498719 .5929718C.32299806 .62997439 .33399964 .68307498 .36999513 .68307498 .37799073 .68307498 .39898683 .6810608 .4119873 .6649933 .38198854 .65997317 .36799623 .63597109 .36799623 .61598208 .36799623 .5939789 .38598634 .5839844 .4019928 .5839844 .4269867 .5839844 .45199586 .6039734 .45199586 .63897708Z"/>
<path id="font_2_1" d="M.36698915 .3996582H.45298768C.47299195 .3996582 .48298646 .3996582 .48298646 .41966249 .48298646 .43066407 .47299195 .43066407 .45599366 .43066407H.37298585L.3939972 .5449524C.397995 .5660095 .4119873 .6370239 .41799928 .6490326 .4269867 .66804507 .44400025 .68307498 .46499635 .68307498 .46899415 .68307498 .49499513 .68307498 .5139923 .66503909 .46998597 .661026 .45999146 .6260376 .45999146 .6110382 .45999146 .58802798 .47799684 .57603457 .49699403 .57603457 .522995 .57603457 .5519867 .5980377 .5519867 .6360321 .5519867 .6820679 .5059967 .7050781 .46499635 .7050781 .43099977 .7050781 .36799623 .68707278 .33799745 .58802798 .33198548 .56700137 .32899476 .5569763 .30499269 .43066407H.23599243C.21699524 .43066407 .20599365 .43066407 .20599365 .4116516 .20599365 .3996582 .21499634 .3996582 .23399353 .3996582H.2999878L.22499085 .0048828127C.20698548-.09207153 .18998719-.18309021 .13798523-.18309021 .13398743-.18309021 .10899353-.18309021 .08999634-.16506958 .13598633-.1620636 .14498902-.12606812 .14498902-.111068729 .14498902-.08807373 .1269989-.07606506 .10798645-.07606506 .08198547-.07606506 .052993776-.09806824 .052993776-.13606262 .052993776-.18109131 .09700012-.20507813 .13798523-.20507813 .19299317-.20507813 .23298645-.14607239 .25099183-.108062747 .2829895-.04508972 .30599977 .07583618 .30699159 .082839969L.36698915 .3996582Z"/>
<path id="font_3_1" d="M.2899933 .4720459C.2979889 .4890442 .29899598 .49705506 .29899598 .5040436 .29899598 .53504946 .2709961 .5590515 .23999024 .5590515 .20199585 .5590515 .18998719 .52804568 .18499756 .51205447L.052993776 .07901001C.051986696 .07701111 .04798889 .06401062 .04798889 .06300354 .04798889 .05101013 .07899475 .041015626 .08699036 .041015626 .09399414 .041015626 .09498596 .043014528 .101989749 .058013917L.2899933 .4720459Z"/>
<path id="font_4_2" d="M.33099366-.2400055C.33099366-.23701477 .33099366-.23500061 .31399537-.21800232 .18899536-.0920105 .15699768 .09700012 .15699768 .25 .15699768 .42399598 .19499207 .59799197 .31799317 .72299197 .33099366 .73498538 .33099366 .7369995 .33099366 .73999026 .33099366 .746994 .32699586 .75 .32099916 .75 .31098939 .75 .22099304 .6819916 .1619873 .5549927 .11099243 .44499208 .09899902 .33399964 .09899902 .25 .09899902 .17199707 .10998535 .050994874 .16499329-.06201172 .22499085-.18501282 .31098939-.25 .32099916-.25 .32699586-.25 .33099366-.24700928 .33099366-.2400055Z"/>
<path id="font_2_2" d="M.33399964 .30233766C.33999635 .32835389 .36299134 .42037965 .43299867 .42037965 .43798829 .42037965 .46199037 .42037965 .48298646 .40734864 .45498658 .402359 .43499757 .37734986 .43499757 .35334779 .43499757 .33735658 .44599916 .31835938 .47299195 .31835938 .49499513 .31835938 .5269928 .3363495 .5269928 .37635804 .5269928 .42837525 .46798707 .4423828 .43399049 .4423828 .37599183 .4423828 .34098817 .38935853 .32899476 .36634828 .3039856 .43237306 .25 .4423828 .22099304 .4423828 .116989139 .4423828 .05999756 .3133545 .05999756 .28834535 .05999756 .27833558 .069992069 .27833558 .07199097 .27833558 .07998657 .27833558 .08299255 .28033448 .084991458 .28933717 .11898804 .39535523 .18499756 .42037965 .21899414 .42037965 .23799134 .42037965 .272995 .4113617 .272995 .35334779 .272995 .32235719 .2559967 .25532533 .21899414 .11528015 .20298767 .053268434 .16799927 .011245728 .12399292 .011245728 .117996219 .011245728 .09498596 .011245728 .07398987 .024276734 .09899902 .029266358 .12098694 .05027771 .12098694 .07827759 .12098694 .105270389 .09899902 .11328125 .083999637 .11328125 .053985597 .11328125 .0289917 .08728027 .0289917 .055267335 .0289917 .009246826 .07899475-.0107421879 .12298584-.0107421879 .18899536-.0107421879 .22499085 .059280397 .22799683 .0652771 .23999024 .028274537 .27598573-.0107421879 .33599855-.0107421879 .43899537-.0107421879 .49598695 .118270877 .49598695 .14328003 .49598695 .1532898 .4869995 .1532898 .48399354 .1532898 .47499085 .1532898 .47299195 .14929199 .47099305 .14228821 .43798829 .03527832 .36999513 .011245728 .33799745 .011245728 .29899598 .011245728 .2829895 .043273927 .2829895 .07727051 .2829895 .09927368 .2889862 .121276859 .2999878 .16529846L.33399964 .30233766Z"/>
<path id="font_4_3" d="M.2889862 .25C.2889862 .32798768 .27799989 .44898988 .22299195 .56199648 .16299439 .68499758 .07699585 .75 .066986087 .75 .06098938 .75 .056991579 .74598696 .056991579 .73999026 .056991579 .7369995 .056991579 .73498538 .07598877 .71699526 .17399597 .6179962 .23098755 .45899964 .23098755 .25 .23098755 .07899475 .19400025-.09700012 .069992069-.2230072 .056991579-.23500061 .056991579-.23701477 .056991579-.2400055 .056991579-.2460022 .06098938-.25 .066986087-.25 .07699585-.25 .16699219-.18200684 .22599793-.055007936 .2769928 .054992677 .2889862 .16600037 .2889862 .25Z"/>
<path id="font_1_35" d="M.45899964 .28633119C.45899964 .39337159 .39898683 .4423828 .33898927 .4423828 .30099488 .4423828 .2669983 .42137147 .23298645 .38935853L.30299378 .6693268C.3039856 .67233279 .30599977 .6823273 .30599977 .6823273 .30599977 .69132998 .2999878 .69433596 .2919922 .69433596 .2889862 .69433596 .2789917 .69332888 .27598573 .6923218L.1769867 .6843262C.16499329 .68333438 .1539917 .6823273 .1539917 .6633301 .1539917 .6523285 .1639862 .6523285 .17799378 .6523285 .22599793 .6523285 .22799683 .6453247 .22799683 .6353302 .22799683 .6323395 .22499085 .6183319 .22499085 .6183319L.12599182 .22331238C.125 .2203064 .114990238 .17930603 .114990238 .14129639 .114990238 .057266237 .15699768-.0107421879 .22999573-.0107421879 .34199525-.0107421879 .45899964 .13928223 .45899964 .28633119M.33599855 .106277469C.32398988 .08126831 .2809906 .011245728 .22999573 .011245728 .20498657 .011245728 .17199707 .03225708 .17199707 .107284549 .17199707 .1512909 .18099976 .18630982 .20999146 .30033876 .21699524 .32434083 .21699524 .32633973 .23199463 .346344 .26098634 .3863678 .29899598 .42037965 .33699037 .42037965 .38198854 .42037965 .3919983 .36335755 .3919983 .3313446 .3919983 .28933717 .36499024 .17030335 .33599855 .106277469Z"/>
<path id="font_1_50" d="M.46798707 .10432434C.46798707 .10932922 .45999146 .12034607 .45199586 .12034607 .44799806 .12034607 .44699098 .11933899 .43899537 .10932922 .36499024 .015258789 .27598573 .011245728 .25898744 .011245728 .19400025 .011245728 .18299866 .08230591 .18299866 .12133789 .18299866 .15937805 .19299317 .204422 .19999695 .23144531H.23899842C.2689972 .23144531 .33599855 .23443604 .38398744 .25343324 .46299745 .2854309 .46299745 .35040284 .46299745 .35740663 .46299745 .40338136 .42599488 .4423828 .3619995 .4423828 .25698854 .4423828 .11399841 .34140016 .11399841 .16438294 .11399841 .0743103 .1619873-.0107421879 .25698854-.0107421879 .3849945-.0107421879 .46798707 .08930969 .46798707 .10432434M.4249878 .35940553C.4249878 .25343324 .2599945 .25343324 .22698975 .25343324H.20599365C.24899292 .41737367 .35198976 .42037965 .3619995 .42037965 .4019928 .42037965 .4249878 .39338685 .4249878 .35940553Z"/>
<path id="font_1_63" d="M.5349884 .14329529C.5349884 .1532898 .5269928 .1532898 .519989 .1532898 .5069885 .1532898 .5069885 .1512909 .5029907 .1362915 .49499513 .10928345 .46798707 .011245728 .4099884 .011245728 .3889923 .011245728 .3880005 .026260376 .3880005 .040252687 .3880005 .06526184 .397995 .091278079 .4059906 .11528015 .42599488 .16830445 .46699525 .28033448 .46699525 .3383484 .46699525 .42037965 .4119873 .4423828 .36299134 .4423828 .29599 .4423828 .26098634 .4073639 .22999573 .3773651L.30299378 .6693268C.3039856 .67233279 .30599977 .6823273 .30599977 .6823273 .30599977 .69132998 .2999878 .69433596 .2919922 .69433596 .2889862 .69433596 .2789917 .69332888 .27598573 .6923218L.1769867 .6843262C.16499329 .68333438 .1539917 .6823273 .1539917 .6633301 .1539917 .6523285 .1639862 .6523285 .17799378 .6523285 .22599793 .6523285 .22799683 .6453247 .22799683 .6353302 .22799683 .6323395 .22499085 .6183319 .22499085 .6183319L.07699585 .028259278C.07598877 .026260376 .07499695 .015258789 .07499695 .015258789 .07499695 .004257202 .083999637-.0107421879 .102996829-.0107421879 .12399292-.0107421879 .13699341 .0062561037 .13999939 .01725769L.18299866 .19030762C.18798828 .21231079 .19400025 .23332215 .19898987 .25532533 .20799256 .29133607 .20899964 .29333497 .22698975 .3253479 .24699402 .35736085 .2899933 .42037965 .3600006 .42037965 .4039917 .42037965 .4059906 .3753662 .4059906 .35435487 .4059906 .29232789 .3619995 .17329407 .34799195 .13328552 .33499146 .09927368 .33198548 .090270999 .33198548 .0692749 .33198548 .025253296 .3600006-.0107421879 .4079895-.0107421879 .5009918-.0107421879 .5349884 .1382904 .5349884 .14329529Z"/>
<path id="font_1_28" d="M.5249939 .14329529C.5249939 .1532898 .5169983 .1532898 .5099945 .1532898 .49798585 .1532898 .49699403 .15229798 .4909973 .13027954 .47698976 .07426453 .45799256 .011245728 .42399598 .011245728 .397995 .011245728 .397995 .038253786 .397995 .052261354 .397995 .059265138 .397995 .07527161 .40499879 .103271488L.47299195 .3753662C.47698976 .38935853 .47698976 .39135743 .47698976 .3963623 .47698976 .41737367 .45999146 .42237855 .44999696 .42237855 .41799928 .42237855 .41099549 .3883667 .4099884 .38336183 .3909912 .42637635 .35899354 .4423828 .32699586 .4423828 .21598816 .4423828 .09799194 .29032899 .09799194 .14428711 .09799194 .059265138 .14399719-.0107421879 .21899414-.0107421879 .25498963-.0107421879 .29899598 .010253906 .33898927 .059265138 .34999085 .010253906 .3869934-.0107421879 .42199708-.0107421879 .45899964-.0107421879 .47999574 .014251709 .49499513 .04525757 .5130005 .08326721 .5249939 .14329529 .5249939 .14329529M.34599305 .12428284C.33799745 .0922699 .27598573 .011245728 .22099304 .011245728 .17399597 .011245728 .1659851 .07026672 .1659851 .10028076 .1659851 .15029907 .19699097 .26733399 .21499634 .30934144 .23999024 .37036134 .28599549 .42037965 .32699586 .42037965 .37098695 .42037965 .3959961 .36836244 .3959961 .32633973 .3959961 .32633973 .394989 .31933595 .3929901 .31333924L.34599305 .12428284Z"/>
<path id="font_1_112" d="M.49299623 .37635804C.49299623 .41137696 .48098756 .4423828 .45199586 .4423828 .42900086 .4423828 .4039917 .41937257 .4039917 .3963623 .4039917 .38336183 .41099549 .37635804 .4169922 .36935426 .44099427 .34335328 .44400025 .31134034 .44400025 .29032899 .44400025 .2623291 .39698792 .011245728 .28199769 .011245728 .22799683 .011245728 .21699524 .061264039 .21699524 .0942688 .21699524 .15229798 .24899292 .23931885 .27598573 .31134034 .2809906 .3273468 .2869873 .3423462 .2869873 .36135865 .2869873 .41137696 .2539978 .4423828 .21099854 .4423828 .117996219 .4423828 .08299255 .29434205 .08299255 .28833009 .08299255 .27833558 .09298706 .27833558 .09799194 .27833558 .11099243 .27833558 .11199951 .28033448 .115997318 .29434205 .12399292 .3253479 .15098572 .42037965 .20899964 .42037965 .21998596 .42037965 .23098755 .41737367 .23098755 .39135743 .23098755 .36735536 .22099304 .3403473 .20698548 .30133058 .17599488 .2163086 .1559906 .15629578 .1559906 .10928345 .1559906 .018249512 .21998596-.0107421879 .2789917-.0107421879 .44699098-.0107421879 .49299623 .35035707 .49299623 .37635804Z"/>
<path id="font_1_96" d="M.4889984 .37927247C.4889984 .43138124 .42399598 .4423828 .3909912 .4423828 .32199098 .4423828 .28599549 .39227296 .269989 .37026979 .25898744 .42337037 .21998596 .4423828 .18699646 .4423828 .15098572 .4423828 .1309967 .41937257 .114990238 .38926698 .09599304 .34925843 .08299255 .28826905 .08299255 .28826905 .08299255 .27825929 .09298706 .27825929 .09799194 .27825929 .11099243 .27825929 .11199951 .27926637 .116989139 .30126954 .1349945 .3712616 .1539917 .42037965 .18499756 .42037965 .21099854 .42037965 .21099854 .39126588 .21099854 .38026429 .21099854 .36427308 .20799256 .34526063 .20399475 .3292694L.1289978 .029251099C.1269989 .023254395 .12599182 .018249512 .12599182 .015258789 .12599182 .004257202 .13398743-.0107421879 .1539917-.0107421879 .18399048-.0107421879 .19099427 .018249512 .19299317 .026245118L.2579956 .28826905C.25898744 .29125978 .3039856 .42037965 .3899994 .42037965 .394989 .42037965 .4229889 .42037965 .44299317 .40628053 .4079895 .39526368 .40499879 .363266 .40499879 .3582611 .40499879 .34526063 .4139862 .32626344 .43998719 .32626344 .45799256 .32626344 .4889984 .340271 .4889984 .37927247Z"/>
<path id="font_4_1" d="M.15299988 .58932498C.15299988 .6493225 .1289978 .69433596 .085998538 .69433596 .050994874 .69433596 .032989503 .6673279 .032989503 .6413269 .032989503 .6153259 .049987794 .58833315 .085998538 .58833315 .10598755 .58833315 .11999512 .59832766 .12599182 .60432437 .1269989 .60632327 .12799073 .6073303 .1289978 .6073303 .1309967 .6073303 .1309967 .59332278 .1309967 .58932498 .1309967 .5573273 .12399292 .48532105 .06098938 .42332459 .04899597 .41133119 .04899597 .40933229 .04899597 .4063263 .04899597 .3993225 .053985597 .3953247 .05899048 .3953247 .069992069 .3953247 .15299988 .47132875 .15299988 .58932498M.34700013 .58932498C.34700013 .6493225 .32299806 .69433596 .27999879 .69433596 .24499512 .69433596 .22698975 .6673279 .22698975 .6413269 .22698975 .6153259 .24398804 .58833315 .27999879 .58833315 .2999878 .58833315 .31399537 .59832766 .31999208 .60432437 .32099916 .60632327 .32199098 .6073303 .32299806 .6073303 .32499696 .6073303 .32499696 .59332278 .32499696 .58932498 .32499696 .5573273 .31799317 .48532105 .25498963 .42332459 .24299622 .41133119 .24299622 .40933229 .24299622 .4063263 .24299622 .3993225 .24798584 .3953247 .25299073 .3953247 .2639923 .3953247 .34700013 .47132875 .34700013 .58932498Z"/>
<path id="font_4_4" d="M.40899659 .23046875H.6879883C.70199587 .23046875 .72099307 .23046875 .72099307 .25045777 .72099307 .27046205 .70199587 .27046205 .6879883 .27046205H.40899659V.5500183C.40899659 .56399539 .40899659 .5830078 .3889923 .5830078 .36898805 .5830078 .36898805 .56399539 .36898805 .5500183V.27046205H.08898926C.07499695 .27046205 .055999757 .27046205 .055999757 .25045777 .055999757 .23046875 .07499695 .23046875 .08898926 .23046875H.36898805V-.05000305C.36898805-.06401062 .36898805-.08300781 .3889923-.08300781 .40899659-.08300781 .40899659-.06401062 .40899659-.05000305V.23046875Z"/>
<path id="font_5_81" d="M.47099305 .21424866C.47099305 .34223939 .37098695 .4482422 .25 .4482422 .125 .4482422 .027999878 .3392334 .027999878 .21424866 .027999878 .085250858 .13198853-.0107421879 .24899292-.0107421879 .36999513-.0107421879 .47099305 .087249759 .47099305 .21424866M.3880005 .22224427C.3880005 .18624878 .3880005 .13224793 .3659973 .08824158 .34399415 .04324341 .2999878 .014251709 .25 .014251709 .20698548 .014251709 .16299439 .035247804 .13598633 .08125305 .11099243 .12524414 .11099243 .18624878 .11099243 .22224427 .11099243 .26124574 .11099243 .31523133 .1349945 .35923768 .1619873 .40522767 .20899964 .426239 .24899292 .426239 .29299928 .426239 .33599855 .40423585 .3619995 .36123658 .3880005 .3182373 .3880005 .26023866 .3880005 .22224427Z"/>
<path id="font_5_96" d="M.3639984 .38137818C.3639984 .41337586 .33299256 .4423828 .2899933 .4423828 .21699524 .4423828 .18099976 .37538148 .16699219 .3323822V.4423828L.027999878 .43066407V.3996582C.09799194 .3996582 .10598755 .39266969 .10598755 .34370423V.07595825C.10598755 .0309906 .09498596 .0309906 .027999878 .0309906V0L.14199829 .0029907227C.18199158 .0029907227 .22898865 .0029907227 .2689972 0V.0309906H.24798584C.17399597 .0309906 .17199707 .04197693 .17199707 .07795715V.23181153C.17199707 .33137513 .21398926 .42037965 .2899933 .42037965 .29699708 .42037965 .29899598 .42037965 .30099488 .41937257 .2979889 .41838075 .27799989 .40637208 .27799989 .3803711 .27799989 .35237123 .29899598 .33737184 .32099916 .33737184 .33898927 .33737184 .3639984 .3493805 .3639984 .38137818Z"/>
<path id="font_6_1" d="M.6589966 .23046875C.6759949 .23046875 .69400027 .23046875 .69400027 .25045777 .69400027 .27046205 .6759949 .27046205 .6589966 .27046205H.117996219C.100997928 .27046205 .08299255 .27046205 .08299255 .25045777 .08299255 .23046875 .100997928 .23046875 .117996219 .23046875H.6589966Z"/>
<path id="font_6_2" d="M.8779907 .59887698C.875 .58187869 .8730011 .55888369 .8730011 .54089358 .8730011 .52090457 .875 .47192384 .8959961 .41394044 .901001 .40193177 .93099978 .33296205 .94599917 .33296205 .9529877 .33296205 .96899417 .34895326 .96899417 .35595704 .96899417 .35995484 .96798709 .36195375 .96398928 .36894227 .9149933 .44493104 .9119873 .50691226 .9119873 .54190066 .9119873 .60287478 .9279938 .6478729 .93899539 .6708679 .94200137 .6768646 .94299319 .6798706 .94299319 .6828613 .94299319 .6908722 .93699648 .6928711 .93299868 .6928711 .93099978 .6928711 .92900088 .6928711 .92099 .6898651 .8939972 .6768646 .84999087 .66186526 .7919922 .66186526 .7630005 .66186526 .69599917 .6628723 .61898806 .7138672 .61299136 .717865 .6100006 .7188721 .60598757 .7188721 .598999 .7188721 .58299258 .7028656 .58299258 .6958618 .58299258 .6818695 .644989 .6538696 .66600039 .645874 .723999 .62387087 .772995 .62286379 .79100039 .62286379 .82299807 .62286379 .82398989 .62286379 .848999 .62786868L.069992069-.15188599C.056991579-.16488648 .054992677-.16688538 .054992677-.17488098 .054992677-.18487549 .06399536-.19488526 .07499695-.19488526 .08299255-.19488526 .084991458-.19288635 .09700012-.18087769L.8779907 .59887698Z"/>
<path id="font_6_3" d="M.848999-.12788391C.83200076-.12487793 .8089905-.12287903 .79100039-.12287903 .7709961-.12287903 .7220001-.12487793 .6639862-.14588928 .6569977-.14888 .58299258-.17988587 .58299258-.19587708 .58299258-.20288086 .598999-.21888733 .60598757-.21888733 .6100006-.21888733 .61299136-.21788025 .61898806-.21388245 .69799807-.1618805 .7669983-.1618805 .7919922-.1618805 .8529968-.1618805 .897995-.17788697 .92099-.18888855 .9269867-.19187927 .9299927-.19288635 .93299868-.19288635 .93699648-.19288635 .94299319-.19088745 .94299319-.18287659 .94299319-.18087769 .94299319-.17887879 .9399872-.17088318 .9269867-.14387512 .9119873-.100875858 .9119873-.04185486 .9119873 .00015258789 .91799929 .060180665 .96398928 .13119507 .96798709 .13819885 .96899417 .14019776 .96899417 .14419556 .96899417 .15119934 .9529877 .16720581 .94599917 .16720581 .9319916 .16720581 .9039917 .10519409 .8959961 .08618164 .875 .030166626 .8730011-.017852784 .8730011-.04084778 .8730011-.07286072 .8730011-.0738678 .8779907-.09887695L.09700012 .6813507C.084991458 .6933594 .08299255 .6953583 .07499695 .6953583 .06298828 .6953583 .054992677 .6853485 .054992677 .675354 .054992677 .66734316 .056991579 .66534426 .069992069 .65234377L.848999-.12788391Z"/>
<path id="font_4_5" d="M.45999146 .31976319C.45999146 .39982606 .45498658 .47988893 .41999818 .5539398 .37399293 .65000918 .2919922 .6660156 .25 .6660156 .18998719 .6660156 .116989139 .64001467 .07598877 .54693606 .04399109 .47789 .038986207 .39982606 .038986207 .31976319 .038986207 .24472046 .042999269 .15464783 .083999637 .07859802 .1269989-.0024719239 .19999695-.022460938 .24899292-.022460938 .30299378-.022460938 .3789978-.0014648438 .4229889 .09359741 .45498658 .16265869 .45999146 .2407074 .45999146 .31976319M.24899292-.00047302247C.20999146-.00047302247 .15098572 .024551392 .1329956 .12062073 .12199402 .18066406 .12199402 .2727356 .12199402 .3317871 .12199402 .39582826 .12199402 .46188355 .12998963 .5159149 .14898682 .63500979 .22399903 .64401248 .24899292 .64401248 .28199769 .64401248 .34799195 .6259918 .36698915 .52693179 .3769989 .47088624 .3769989 .39482118 .3769989 .3317871 .3769989 .25672914 .3769989 .18867493 .3659973 .12461853 .35099793 .029556275 .2939911-.00047302247 .24899292-.00047302247Z"/>
<path id="font_4_6" d="M.2939911 .64004519C.2939911 .66400149 .2939911 .6660156 .2709961 .6660156 .20899964 .60227969 .12098694 .60227969 .08898926 .60227969V.57128909C.10899353 .57128909 .16799927 .57128909 .21998596 .5972748V.07902527C.21998596 .042999269 .21699524 .0309906 .1269989 .0309906H.09498596V0C.12998963 .0029907227 .21699524 .0029907227 .25698854 .0029907227 .29699708 .0029907227 .38398744 .0029907227 .4189911 0V.0309906H.3869934C.29699708 .0309906 .2939911 .041992189 .2939911 .07902527V.64004519Z"/>
</defs>
<path transform="matrix(1.00008,0,0,-1.00005,-6.375946,-35.0675)" stroke-width="1.49442" stroke-linecap="butt" stroke-miterlimit="10" stroke-linejoin="miter" fill="none" stroke="#000000" d="M113.57556-67.9959 351.1876-67.24869"/>
<path transform="matrix(1.00008,0,0,-1.00005,-6.375946,-35.0675)" stroke-width=".3985" stroke-linecap="butt" stroke-dasharray=".83687,2.50064" stroke-miterlimit="10" stroke-linejoin="miter" fill="none" stroke="#000000" d="M7.47208-67.24869 113.57556-67.9959"/>
<path transform="matrix(1.00008,0,0,-1.00005,-6.375946,-35.0675)" stroke-width=".3985" stroke-linecap="butt" stroke-miterlimit="10" stroke-linejoin="miter" fill="none" stroke="#000000" d="M113.57556-44.83246V-89.66492"/>
<path transform="matrix(1.00008,0,0,-1.00005,-6.375946,-35.0675)" stroke-width=".3985" stroke-linecap="butt" stroke-miterlimit="10" stroke-linejoin="miter" fill="none" stroke="#000000" d="M180.07704-60.52382V-74.72076"/>
<path transform="matrix(1.00008,0,0,-1.00005,-6.375946,-35.0675)" stroke-width=".3985" stroke-linecap="butt" stroke-miterlimit="10" stroke-linejoin="miter" fill="none" stroke="#000000" d="M264.5115-59.77661V-74.72076"/>
<path transform="matrix(1.00008,0,0,-1.00005,-6.375946,-35.0675)" d="M176.341-67.9959C176.341-65.9336 178.01474-64.25986 180.07704-64.25986 182.13932-64.25986 183.81308-65.9336 183.81308-67.9959 183.81308-70.05817 182.13932-71.73193 180.07704-71.73193 178.01474-71.73193 176.341-70.05817 176.341-67.9959Z"/>
<path transform="matrix(1.00008,0,0,-1.00005,-6.375946,-35.0675)" stroke-width=".3985" stroke-linecap="butt" stroke-miterlimit="10" stroke-linejoin="miter" fill="none" stroke="#000000" d="M176.341-67.9959C176.341-65.9336 178.01474-64.25986 180.07704-64.25986 182.13932-64.25986 183.81308-65.9336 183.81308-67.9959 183.81308-70.05817 182.13932-71.73193 180.07704-71.73193 178.01474-71.73193 176.341-70.05817 176.341-67.9959Z"/>
<path transform="matrix(1.00008,0,0,-1.00005,-6.375946,-35.0675)" d="M260.77549-67.24869C260.77549-65.18639 262.4492-63.51265 264.5115-63.51265 266.5738-63.51265 268.24754-65.18639 268.24754-67.24869 268.24754-69.31096 266.5738-70.98473 264.5115-70.98473 262.4492-70.98473 260.77549-69.31096 260.77549-67.24869Z"/>
<path transform="matrix(1.00008,0,0,-1.00005,-6.375946,-35.0675)" stroke-width=".3985" stroke-linecap="butt" stroke-miterlimit="10" stroke-linejoin="miter" fill="none" stroke="#000000" d="M260.77549-67.24869C260.77549-65.18639 262.4492-63.51265 264.5115-63.51265 266.5738-63.51265 268.24754-65.18639 268.24754-67.24869 268.24754-69.31096 266.5738-70.98473 264.5115-70.98473 262.4492-70.98473 260.77549-69.31096 260.77549-67.24869Z"/>
<path transform="matrix(1.00008,0,0,-1.00005,-6.375946,-35.0675)" stroke-width=".3985" stroke-linecap="butt" stroke-miterlimit="10" stroke-linejoin="miter" fill="none" stroke="#000000" d="M37.36038-35.86597"/>
<use data-text="s" xlink:href="#font_1_98" transform="matrix(9.963397,0,0,-9.963098,31.934117,9.23671)"/>
<use data-text="i" xlink:href="#font_1_66" transform="matrix(9.963397,0,0,-9.963098,36.009145,9.23671)"/>
<use data-text="g" xlink:href="#font_1_59" transform="matrix(9.963397,0,0,-9.963098,39.067907,9.23671)"/>
<use data-text="n" xlink:href="#font_1_77" transform="matrix(9.963397,0,0,-9.963098,43.651067,9.23671)"/>
<use data-text="o" xlink:href="#font_1_81" transform="matrix(9.963397,0,0,-9.963098,52.80743,9.23671)"/>
<use data-text="f" xlink:href="#font_1_55" transform="matrix(9.963397,0,0,-9.963098,57.898725,9.23671)"/>
<use data-text="f" xlink:href="#font_2_1" transform="matrix(9.963397,0,0,-9.963098,65.72981,9.23671)"/>
<use data-text="&#x2032;" xlink:href="#font_3_1" transform="matrix(6.974358,0,0,-6.9741489,71.6803,5.620529)"/>
<use data-text="(" xlink:href="#font_4_2" transform="matrix(9.963397,0,0,-9.963098,74.47551,9.23671)"/>
<use data-text="x" xlink:href="#font_2_2" transform="matrix(9.963397,0,0,-9.963098,78.350818,9.23671)"/>
<use data-text=")" xlink:href="#font_4_3" transform="matrix(9.963397,0,0,-9.963098,84.04527,9.23671)"/>
<path transform="matrix(1.00008,0,0,-1.00005,-6.375946,-35.0675)" stroke-width=".3985" stroke-linecap="butt" stroke-miterlimit="10" stroke-linejoin="miter" fill="none" stroke="#000000" d="M24.65785-70.98473"/>
<use data-text="b" xlink:href="#font_1_35" transform="matrix(9.963397,0,0,-9.963098,19.230103,44.339468)"/>
<use data-text="e" xlink:href="#font_1_50" transform="matrix(9.963397,0,0,-9.963098,23.30513,44.339468)"/>
<use data-text="h" xlink:href="#font_1_63" transform="matrix(9.963397,0,0,-9.963098,27.88829,44.339468)"/>
<use data-text="a" xlink:href="#font_1_28" transform="matrix(9.963397,0,0,-9.963098,32.979585,44.339468)"/>
<use data-text="v" xlink:href="#font_1_112" transform="matrix(9.963397,0,0,-9.963098,38.070878,44.339468)"/>
<use data-text="i" xlink:href="#font_1_66" transform="matrix(9.963397,0,0,-9.963098,42.654039,44.339468)"/>
<use data-text="o" xlink:href="#font_1_81" transform="matrix(9.963397,0,0,-9.963098,45.712808,44.339468)"/>
<use data-text="r" xlink:href="#font_1_96" transform="matrix(9.963397,0,0,-9.963098,50.8041,44.339468)"/>
<use data-text="o" xlink:href="#font_1_81" transform="matrix(9.963397,0,0,-9.963098,58.575548,44.339468)"/>
<use data-text="f" xlink:href="#font_1_55" transform="matrix(9.963397,0,0,-9.963098,63.666849,44.339468)"/>
<use data-text="f" xlink:href="#font_2_1" transform="matrix(9.963397,0,0,-9.963098,70.29218,44.339468)"/>
<use data-text="(" xlink:href="#font_4_2" transform="matrix(9.963397,0,0,-9.963098,76.24266,44.339468)"/>
<use data-text="x" xlink:href="#font_2_2" transform="matrix(9.963397,0,0,-9.963098,80.11798,44.339468)"/>
<use data-text=")" xlink:href="#font_4_3" transform="matrix(9.963397,0,0,-9.963098,85.81242,44.339468)"/>
<path transform="matrix(1.00008,0,0,-1.00005,-6.375946,-35.0675)" stroke-width=".3985" stroke-linecap="butt" stroke-miterlimit="10" stroke-linejoin="miter" fill="none" stroke="#000000" d="M37.36038-50.81012"/>
<use data-text="&#x201d;" xlink:href="#font_4_1" transform="matrix(9.963397,0,0,-9.963098,31.934117,23.610432)"/>
<use data-text="+" xlink:href="#font_4_4" transform="matrix(9.963397,0,0,-9.963098,39.12769,23.610432)"/>
<use data-text="&#x201d;" xlink:href="#font_4_1" transform="matrix(9.963397,0,0,-9.963098,49.081129,23.610432)"/>
<use data-text="o" xlink:href="#font_5_81" transform="matrix(9.963397,0,0,-9.963098,57.393156,23.610432)"/>
<use data-text="r" xlink:href="#font_5_96" transform="matrix(9.963397,0,0,-9.963098,62.37485,23.610432)"/>
<use data-text="&#x201d;" xlink:href="#font_4_1" transform="matrix(9.963397,0,0,-9.963098,69.59813,23.610432)"/>
<use data-text="&#x2212;" xlink:href="#font_6_1" transform="matrix(9.963397,0,0,-9.963098,76.7937,23.610432)"/>
<use data-text="&#x201d;" xlink:href="#font_4_1" transform="matrix(9.963397,0,0,-9.963098,86.75751,23.610432)"/>
<path transform="matrix(1.00008,0,0,-1.00005,-6.375946,-35.0675)" stroke-width=".3985" stroke-linecap="butt" stroke-miterlimit="10" stroke-linejoin="miter" fill="none" stroke="#000000" d="M37.36038-86.97495"/>
<use data-text="&#x2197;" xlink:href="#font_6_2" transform="matrix(9.963397,0,0,-9.963098,31.934117,59.777235)"/>
<use data-text="o" xlink:href="#font_5_81" transform="matrix(9.963397,0,0,-9.963098,48.533445,59.777235)"/>
<use data-text="r" xlink:href="#font_5_96" transform="matrix(9.963397,0,0,-9.963098,53.51514,59.777235)"/>
<use data-text="&#x2198;" xlink:href="#font_6_3" transform="matrix(9.963397,0,0,-9.963098,64.05568,59.777235)"/>
<path transform="matrix(1.00008,0,0,-1.00005,-6.375946,-35.0675)" stroke-width=".3985" stroke-linecap="butt" stroke-miterlimit="10" stroke-linejoin="miter" fill="none" stroke="#000000" d="M175.5938-76.51404"/>
<use data-text="0" xlink:href="#font_4_5" transform="matrix(9.963397,0,0,-9.963098,170.17816,48.817686)"/>
<path transform="matrix(1.00008,0,0,-1.00005,-6.375946,-35.0675)" stroke-width=".3985" stroke-linecap="butt" stroke-miterlimit="10" stroke-linejoin="miter" fill="none" stroke="#000000" d="M260.77549-76.51404"/>
<use data-text="1" xlink:href="#font_4_6" transform="matrix(9.963397,0,0,-9.963098,255.36698,48.817686)"/>
<path transform="matrix(1.00008,0,0,-1.00005,-6.375946,-35.0675)" stroke-width=".3985" stroke-linecap="butt" stroke-miterlimit="10" stroke-linejoin="miter" fill="none" stroke="#000000" d="M152.43036-46.62573"/>
<use data-text="&#x2212;" xlink:href="#font_6_1" transform="matrix(9.963397,0,0,-9.963098,147.01332,18.319165)"/>
<path transform="matrix(1.00008,0,0,-1.00005,-6.375946,-35.0675)" stroke-width=".3985" stroke-linecap="butt" stroke-miterlimit="10" stroke-linejoin="miter" fill="none" stroke="#000000" d="M221.92067-46.62573"/>
<use data-text="+" xlink:href="#font_4_4" transform="matrix(9.963397,0,0,-9.963098,216.50888,18.319165)"/>
<path transform="matrix(1.00008,0,0,-1.00005,-6.375946,-35.0675)" stroke-width=".3985" stroke-linecap="butt" stroke-miterlimit="10" stroke-linejoin="miter" fill="none" stroke="#000000" d="M296.64143-46.62573"/>
<use data-text="+" xlink:href="#font_4_4" transform="matrix(9.963397,0,0,-9.963098,291.23588,18.319165)"/>
<path transform="matrix(1.00008,0,0,-1.00005,-6.375946,-35.0675)" stroke-width=".3985" stroke-linecap="butt" stroke-miterlimit="10" stroke-linejoin="miter" fill="none" stroke="#000000" d="M141.96945-76.51404"/>
<use data-text="&#x2198;" xlink:href="#font_6_3" transform="matrix(9.963397,0,0,-9.963098,136.55149,49.31571)"/>
<path transform="matrix(1.00008,0,0,-1.00005,-6.375946,-35.0675)" stroke-width=".3985" stroke-linecap="butt" stroke-miterlimit="10" stroke-linejoin="miter" fill="none" stroke="#000000" d="M215.1958-76.51404"/>
<use data-text="&#x2197;" xlink:href="#font_6_2" transform="matrix(9.963397,0,0,-9.963098,209.78334,49.31571)"/>
<path transform="matrix(1.00008,0,0,-1.00005,-6.375946,-35.0675)" stroke-width=".3985" stroke-linecap="butt" stroke-miterlimit="10" stroke-linejoin="miter" fill="none" stroke="#000000" d="M289.91658-76.51404"/>
<use data-text="&#x2197;" xlink:href="#font_6_2" transform="matrix(9.963397,0,0,-9.963098,284.5103,49.31571)"/>
</svg>
